<?xml version="1.0" standalone="no"?>
<!DOCTYPE svg PUBLIC "-//W3C//DTD SVG 20010904//EN"
 "http://www.w3.org/TR/2001/REC-SVG-20010904/DTD/svg10.dtd">
<svg version="1.0" xmlns="http://www.w3.org/2000/svg"
 width="1072.000000pt" height="1072.000000pt" viewBox="0 0 1072.000000 1072.000000"
 preserveAspectRatio="xMidYMid meet">
<metadata>
Created by potrace 1.14, written by Peter Selinger 2001-2017
</metadata>
<g transform="translate(0.000000,1072.000000) scale(0.100000,-0.100000)"
fill="#000000" stroke="none">
<path d="M0 5588 l0 -5133 38 -18 c81 -40 102 -53 107 -69 3 -9 14 -19 23 -21
9 -3 3 -5 -15 -6 -40 -1 -44 -8 -33 -55 8 -36 58 -96 81 -96 5 0 9 -6 9 -14 0
-7 12 -16 28 -19 37 -8 78 -47 74 -72 -2 -15 11 -28 52 -52 l54 -33 412 0
c333 0 410 2 408 13 -4 17 44 74 67 78 9 2 29 26 43 53 l25 48 -21 17 c-20 15
-22 24 -20 108 2 50 1 94 -3 97 -3 3 -30 7 -60 10 -29 2 -76 10 -102 17 l-48
12 2 48 c5 81 -42 144 -79 107 -19 -19 -32 8 -32 69 0 74 -6 83 -50 83 -21 0
-43 6 -49 14 -15 18 -7 113 13 151 9 17 16 36 16 42 0 13 -33 24 -60 21 -8 -1
-29 2 -46 6 -29 7 -31 10 -20 30 7 11 32 41 56 66 l44 45 -70 10 c-41 6 -64
13 -56 18 15 10 16 53 2 62 -17 11 6 32 56 51 46 18 51 23 33 41 -8 8 -6 18 6
37 17 25 17 26 -15 43 -17 10 -38 23 -46 28 -18 13 -8 52 16 58 15 4 19 17 22
71 3 74 8 69 -76 80 -45 6 -41 3 -50 39 -5 20 -3 27 8 27 20 0 36 32 30 57 -5
17 0 21 33 26 22 4 55 17 74 30 39 26 51 57 22 57 -11 0 -32 14 -48 30 -16 17
-35 28 -42 26 -19 -8 -16 3 9 31 43 47 59 58 106 73 46 15 47 16 47 55 0 39 1
40 40 48 22 5 63 20 90 34 126 65 126 65 120 84 -9 27 36 53 80 45 19 -4 37
-11 40 -16 9 -15 -16 -46 -46 -57 -16 -6 -33 -22 -38 -35 -5 -13 -21 -30 -36
-38 -23 -12 -26 -19 -20 -47 4 -23 -1 -46 -19 -82 -14 -27 -30 -52 -35 -56 -6
-3 -8 -11 -5 -18 5 -15 -22 -85 -42 -108 -10 -11 -12 -32 -7 -83 6 -63 8 -67
33 -72 27 -6 60 -48 60 -78 0 -9 6 -16 13 -17 6 0 36 -2 65 -2 40 -2 57 -7 68
-21 12 -17 22 -18 84 -12 l70 6 0 -30 c0 -23 6 -33 23 -39 28 -11 51 -37 43
-50 -4 -5 -2 -12 4 -16 5 -3 10 -17 10 -30 0 -31 20 -43 35 -22 7 10 24 17 37
17 22 0 27 -6 32 -36 4 -19 14 -38 22 -41 7 -3 14 -13 14 -22 0 -10 12 -28 26
-42 14 -13 30 -34 35 -46 11 -29 53 -31 77 -3 l17 21 5 -23 c9 -37 35 -33 60
9 13 21 33 49 46 63 32 35 45 167 19 194 -13 13 -16 26 -11 55 8 55 -15 106
-55 120 -30 10 -31 12 -16 29 22 24 21 49 -1 56 -10 4 -40 31 -67 62 -41 48
-47 59 -37 75 7 10 12 25 12 33 0 7 6 19 13 25 20 16 9 66 -19 92 -13 12 -24
27 -24 33 0 5 -10 20 -21 32 l-22 23 39 37 39 37 -35 10 c-19 5 -41 11 -48 13
-7 2 -18 17 -23 34 -6 16 -14 30 -17 30 -4 0 -13 4 -21 9 -11 7 -7 18 19 54
37 52 35 72 -8 80 -40 8 -54 45 -23 65 28 19 29 81 1 105 -21 18 -27 52 -10
62 18 11 11 86 -12 127 l-23 40 34 27 c18 15 31 33 30 41 -2 8 2 25 9 38 9 16
10 27 2 42 -7 13 -7 26 -1 38 5 9 8 40 8 69 -2 58 20 93 59 93 59 0 71 14 78
89 l7 71 40 6 c43 7 48 21 25 66 -23 44 -31 114 -14 121 8 3 21 2 28 -3 25
-15 66 9 79 46 12 33 11 39 -8 65 -35 48 -37 83 -7 119 14 18 26 38 26 46 0 8
7 14 15 14 18 0 39 36 25 45 -5 3 -10 26 -10 51 0 24 -4 44 -8 44 -5 0 -22 11
-38 25 -16 14 -32 25 -36 25 -3 0 -11 13 -16 30 -6 16 -20 40 -32 52 -17 18
-20 31 -16 58 3 19 6 54 6 77 0 34 7 51 38 87 49 59 82 113 82 135 0 9 16 31
34 48 19 17 37 41 40 54 2 13 12 58 21 99 9 42 13 88 10 103 -5 16 -2 33 5 42
6 8 14 41 17 74 4 44 10 62 22 66 9 3 25 20 35 39 12 23 27 36 47 40 22 4 31
13 35 35 3 16 26 50 50 77 44 47 54 76 33 90 -18 11 5 179 27 205 15 17 9 48
-10 50 -22 3 -41 -3 -48 -14 -5 -8 -13 -5 -27 7 -23 21 -19 36 10 36 19 0 25
16 11 36 -14 22 -85 64 -108 64 -13 0 -24 6 -24 13 0 6 -14 20 -30 29 -17 10
-30 25 -30 36 0 49 -80 97 -142 85 -15 -3 -30 2 -37 11 -18 22 -38 20 -46 -5
-6 -17 -14 -20 -45 -18 -22 2 -42 0 -46 -4 -13 -12 -62 -7 -67 7 -7 19 1 26
31 26 20 0 22 2 12 15 -11 13 -15 13 -41 0 -27 -14 -29 -14 -27 2 4 48 -1 53
-44 53 -52 -1 -78 -18 -78 -54 0 -23 -4 -26 -26 -24 -16 2 -29 -3 -32 -11 -3
-10 1 -12 16 -9 17 5 19 3 13 -15 -5 -12 -17 -24 -27 -27 -10 -3 -31 -13 -46
-24 -30 -20 -63 -15 -54 9 3 8 2 16 -2 19 -4 2 -9 19 -10 37 -1 18 -8 39 -15
47 -10 12 -7 14 21 7 28 -6 34 -4 38 12 5 17 30 37 98 75 17 10 27 18 22 18
-5 0 -1 9 8 19 16 18 16 20 -5 34 -27 20 -55 10 -117 -42 -41 -34 -113 -61
-144 -53 -11 3 -82 -29 -100 -46 -29 -25 -21 -31 35 -30 28 1 62 -4 75 -11 23
-12 23 -13 6 -39 -9 -15 -32 -41 -51 -58 -21 -21 -31 -37 -27 -48 4 -12 0 -16
-16 -16 -12 0 -31 -11 -41 -25 -23 -28 -82 -43 -104 -25 -12 10 -11 15 5 33
11 11 20 27 20 34 0 7 3 13 8 13 10 0 44 61 37 68 -7 7 -133 -16 -157 -29 -22
-12 -23 -33 -2 -69 20 -32 12 -83 -10 -74 -8 3 -26 -2 -41 -12 -28 -18 -62
-74 -45 -74 23 0 8 -27 -25 -44 -30 -17 -39 -17 -79 -6 -39 11 -46 17 -51 44
-3 17 -3 40 -1 51 3 11 5 24 5 29 1 4 8 6 16 2 16 -6 18 4 17 61 -1 23 4 33
17 38 37 11 71 46 71 72 0 14 10 39 22 55 15 22 21 44 20 79 -1 42 2 49 18 49
22 0 46 35 30 45 -13 8 6 45 22 45 6 0 35 16 65 37 38 26 53 43 53 60 0 15 24
47 69 93 37 38 71 70 74 70 9 0 93 58 104 72 6 7 14 28 18 46 5 26 11 32 32
32 15 0 23 5 20 13 -8 23 15 49 61 69 55 25 123 71 175 122 21 20 50 39 65 42
15 4 64 24 109 45 44 22 88 39 96 39 9 0 18 4 21 9 3 5 18 12 33 16 16 3 35
12 43 19 21 18 154 54 230 62 40 4 74 14 91 27 24 17 37 19 102 13 56 -5 82
-3 111 9 20 9 56 16 80 17 50 1 153 -27 173 -47 7 -8 20 -12 29 -8 29 11 107
-88 86 -109 -15 -15 48 -78 77 -78 23 0 41 27 41 62 0 13 7 33 15 44 8 10 15
26 15 35 0 9 8 27 19 40 25 33 91 159 91 176 0 25 181 210 324 330 17 14 26
32 26 51 0 21 7 32 25 40 16 7 25 20 25 34 0 36 24 73 46 74 44 2 73 15 79 34
3 11 11 20 16 20 5 0 24 10 40 23 23 17 44 22 87 22 l57 0 0 42 c0 23 4 45 8
49 4 5 28 0 54 -9 60 -22 77 -11 68 48 -3 23 -1 54 4 68 9 22 17 27 45 27 19
0 39 -6 43 -14 4 -7 32 -15 62 -18 33 -3 59 -12 66 -21 6 -9 24 -21 39 -27 33
-12 64 2 119 54 21 20 44 36 50 36 32 -1 36 -16 34 -138 -3 -155 -3 -154 127
-146 50 3 106 10 124 14 17 5 32 5 32 0 0 -5 15 -12 33 -15 17 -4 47 -16 65
-27 27 -17 35 -18 48 -7 9 7 29 12 44 11 16 -1 31 2 35 8 4 6 -6 10 -25 10
-42 0 -49 24 -16 59 14 15 26 33 26 39 0 14 35 57 97 118 47 48 63 93 69 197
2 38 6 73 9 77 8 12 -14 153 -25 164 -25 25 3 92 34 80 9 -3 16 -13 16 -20 0
-8 12 -38 26 -66 24 -47 25 -66 9 -110 -3 -8 4 -25 15 -39 18 -20 21 -33 16
-74 -13 -126 -21 -158 -41 -169 -28 -15 -35 -27 -35 -57 0 -15 -7 -42 -15 -61
-17 -43 -107 -138 -130 -138 -13 0 -15 -7 -10 -33 5 -25 1 -39 -15 -60 -24
-30 -51 -34 -93 -12 -25 13 -33 13 -73 -1 -25 -8 -53 -13 -63 -9 -26 8 -101
-29 -144 -70 -21 -21 -46 -35 -61 -35 -19 0 -26 -7 -31 -31 -8 -37 2 -50 46
-55 34 -4 49 -18 49 -45 0 -9 7 -19 15 -22 8 -4 23 -24 34 -46 19 -37 22 -49
20 -106 0 -11 -1 -59 -2 -106 -1 -55 -7 -92 -16 -102 -8 -10 -11 -27 -7 -42 5
-20 0 -31 -26 -55 l-33 -29 28 -23 c23 -19 28 -33 33 -88 4 -36 11 -73 16 -83
6 -12 5 -23 -4 -35 -11 -13 -11 -14 0 -8 16 9 48 -21 47 -44 0 -24 -58 -99
-85 -109 -50 -20 -70 -47 -81 -110 -6 -34 -8 -69 -3 -79 19 -43 13 -106 -18
-169 -9 -17 -6 -33 11 -74 27 -62 18 -78 -28 -55 -17 9 -31 12 -31 7 0 -5 -12
-24 -26 -41 -15 -17 -24 -33 -21 -36 7 -7 -32 -94 -49 -112 -16 -16 -18 -60
-4 -82 8 -12 10 -11 10 7 0 12 4 24 9 27 11 7 61 -104 61 -136 0 -30 28 -58
59 -58 13 0 36 -14 52 -31 l29 -31 31 60 c34 65 34 94 0 85 -16 -4 -21 -1 -21
15 0 11 7 26 16 33 14 11 18 10 30 -6 11 -14 27 -19 74 -20 46 -1 64 -6 77
-21 42 -47 45 -52 33 -74 -15 -29 -4 -65 16 -49 17 14 19 60 3 76 -8 8 -2 21
23 48 31 34 37 36 71 30 29 -6 37 -12 37 -29 0 -19 6 -22 45 -24 54 -2 92 -25
93 -55 0 -12 1 -29 3 -37 2 -8 -6 -19 -18 -24 -12 -6 -25 -21 -28 -33 -3 -13
-17 -28 -30 -33 -22 -8 -25 -16 -27 -62 -2 -71 1 -91 13 -103 7 -7 13 -4 20 8
14 25 26 21 44 -13 21 -41 53 -39 46 3 -1 4 -6 40 -11 79 -6 39 -16 78 -23 86
-10 13 -8 14 21 9 17 -4 44 -2 58 3 18 7 33 6 55 -5 33 -18 35 -26 13 -107
-14 -54 -14 -62 1 -84 17 -27 35 -23 68 14 15 16 16 25 8 40 -9 17 -6 22 23
36 35 17 49 30 59 58 5 13 -3 22 -30 35 -20 9 -32 18 -26 20 7 3 8 17 1 46
-10 46 6 172 25 184 5 3 18 -4 28 -16 16 -19 17 -35 12 -120 -4 -67 -2 -109 7
-132 29 -81 37 -140 32 -248 -5 -129 1 -160 23 -117 8 16 15 35 15 42 0 8 9
23 20 34 25 25 26 64 1 98 -11 17 -21 54 -24 96 -6 59 -4 71 11 82 14 11 21 9
45 -14 26 -25 27 -30 27 -127 0 -56 -5 -116 -11 -134 -6 -18 -8 -35 -4 -39 4
-4 10 -1 12 6 4 10 8 8 18 -5 13 -17 15 -17 47 0 23 12 43 15 66 11 21 -4 38
-2 49 7 13 11 17 11 20 2 3 -7 11 -13 18 -13 7 0 31 -21 52 -46 30 -36 44 -45
59 -40 16 5 20 14 19 37 -1 22 4 35 21 46 13 8 28 12 34 8 6 -3 26 -1 46 5 33
11 36 15 32 46 -2 21 1 35 9 38 7 3 13 12 13 19 0 20 79 21 101 1 11 -10 25
-13 39 -9 15 5 29 1 43 -13 43 -38 117 -49 117 -18 0 21 42 33 104 30 68 -4
102 -23 121 -68 14 -34 77 -106 93 -106 19 0 32 -26 20 -38 -13 -13 13 -92 38
-112 8 -8 14 -30 14 -56 0 -31 4 -44 14 -44 8 0 19 -13 25 -30 5 -16 14 -30
19 -30 5 0 12 -14 16 -32 4 -21 26 -49 66 -86 64 -59 77 -92 36 -92 -48 0 -42
-16 43 -105 16 -16 42 -50 59 -75 63 -95 134 -151 173 -138 18 6 19 105 1 158
-28 85 -61 149 -87 166 -14 9 -25 22 -25 30 0 7 -9 19 -20 27 -12 8 -24 33
-29 62 -5 27 -15 54 -23 59 -18 15 -48 82 -48 108 0 31 -49 91 -70 85 -12 -3
-26 12 -52 62 -30 57 -38 66 -61 65 -15 -1 -27 3 -27 7 0 4 -13 30 -29 57 -29
49 -31 69 -16 160 5 28 2 33 -22 44 -39 16 -83 58 -83 79 0 9 7 22 15 29 8 7
15 19 15 26 0 10 12 13 40 12 50 -2 57 5 66 60 5 31 3 42 -7 42 -13 0 -71 -17
-99 -29 -8 -3 -27 -5 -42 -3 -26 3 -28 7 -28 50 0 26 5 63 11 82 5 19 10 63
10 97 0 49 -4 67 -20 84 -12 13 -21 26 -21 30 0 4 -16 23 -36 42 -28 27 -37
44 -41 80 -7 58 4 120 20 114 7 -2 17 3 24 12 11 14 12 13 13 -7 0 -34 31 -63
59 -55 20 5 22 10 16 42 -7 40 -30 81 -45 81 -5 0 -15 -6 -22 -13 -10 -11 -17
-11 -40 1 -27 13 -29 17 -27 70 1 32 -2 76 -6 100 -5 28 -4 42 3 42 6 0 14 -4
17 -10 12 -19 35 -10 55 23 11 17 20 38 20 45 0 21 -39 52 -64 52 -14 0 -32
10 -40 22 -14 20 -16 20 -22 4 -4 -10 -2 -38 3 -62 9 -40 9 -42 -8 -33 -10 5
-25 19 -33 31 -14 20 -14 24 6 45 18 19 20 30 15 80 -3 32 -12 62 -19 68 -7 6
-24 25 -37 44 -17 24 -20 36 -12 44 18 18 13 35 -11 39 -20 3 -22 9 -23 63 0
57 1 60 26 63 21 2 29 -3 38 -25 19 -44 71 -97 83 -85 17 17 0 97 -27 127 -23
24 -33 55 -19 55 10 0 43 -44 44 -57 0 -7 7 -13 15 -13 42 0 -5 95 -50 102
-41 6 -72 91 -42 116 17 14 84 -15 92 -40 8 -23 53 -24 62 -2 3 9 1 30 -5 47
-6 18 -20 59 -31 91 -26 74 -26 74 4 82 34 8 32 34 -6 101 -25 44 -29 58 -21
81 5 15 6 36 2 47 -11 32 -3 157 11 166 16 10 -4 76 -38 121 -13 18 -23 38
-23 45 0 7 -7 13 -15 13 -10 0 -17 14 -21 41 -4 22 -13 43 -20 46 -9 3 -14 22
-14 53 0 55 16 67 70 55 28 -6 87 7 188 42 39 14 48 14 87 -2 33 -12 49 -14
64 -6 52 28 74 6 71 -72 -3 -63 -2 -67 20 -67 11 0 23 -7 26 -15 4 -8 15 -15
25 -15 44 0 56 -64 27 -141 -13 -36 -114 -122 -135 -115 -11 4 -12 10 -5 19
15 18 25 94 13 101 -5 4 -27 -14 -47 -38 -43 -52 -58 -60 -85 -46 -24 13 -50
0 -68 -34 -10 -18 -11 -29 -4 -38 6 -7 14 -33 18 -58 4 -25 15 -60 26 -78 10
-18 19 -38 19 -44 0 -6 6 -19 14 -27 8 -9 24 -41 37 -71 12 -30 30 -64 40 -75
10 -11 25 -36 34 -55 9 -19 27 -55 40 -80 13 -25 24 -53 24 -62 1 -18 50 -145
75 -193 9 -17 16 -37 16 -47 0 -9 12 -40 27 -69 22 -41 28 -67 29 -128 2 -85
13 -120 50 -164 20 -24 24 -38 20 -60 -7 -34 16 -69 39 -61 21 8 53 -13 70
-46 10 -20 20 -27 31 -23 27 10 36 -20 11 -34 l-22 -11 27 -11 c17 -6 30 -22
38 -47 7 -21 21 -51 31 -68 12 -20 15 -36 9 -46 -5 -9 -3 -24 6 -41 8 -16 14
-35 14 -44 0 -13 11 -19 32 -16 4 0 12 -15 18 -34 8 -25 19 -37 38 -42 24 -6
24 -7 7 -13 -27 -9 -25 -30 4 -58 23 -21 25 -21 43 -6 28 27 23 59 -13 74 -21
9 -27 15 -17 21 7 5 16 3 20 -4 4 -7 8 -8 8 -2 0 5 5 4 12 -3 9 -9 16 -8 29 4
14 13 21 13 40 3 12 -6 42 -13 67 -16 36 -3 48 0 67 19 38 38 53 48 72 48 26
0 74 -64 69 -92 -3 -13 -5 -26 -5 -30 -1 -3 -12 -4 -26 -2 -14 2 -36 6 -50 8
-17 3 -26 -1 -30 -13 -3 -10 -17 -23 -32 -30 -21 -10 -24 -14 -13 -21 21 -13
5 -24 -16 -12 -12 7 -31 6 -60 -3 -24 -7 -45 -10 -48 -7 -4 3 -6 -4 -6 -15 0
-33 64 -93 99 -93 24 0 31 4 31 20 0 11 5 20 10 20 6 0 10 -6 10 -14 0 -13 4
-13 28 0 42 22 133 18 160 -6 12 -12 22 -17 22 -12 0 5 11 10 25 10 13 -1 22
-4 20 -9 -3 -4 -1 -11 5 -14 6 -4 10 -3 9 2 -4 22 2 43 11 38 11 -7 14 5 11
47 0 15 4 30 9 33 6 3 10 -4 10 -17 0 -13 5 -30 10 -38 8 -12 10 -10 11 10 1
39 9 74 18 83 9 9 52 -9 50 -21 -4 -21 3 -42 17 -56 26 -26 21 -76 -9 -101
-15 -11 -27 -24 -27 -27 0 -13 79 -88 92 -88 38 0 58 -77 74 -280 2 -36 11
-127 20 -202 29 -263 25 -635 -10 -778 -8 -30 -14 -64 -14 -75 -1 -11 -10 -67
-22 -125 -11 -58 -24 -136 -29 -175 -4 -38 -15 -84 -24 -102 -10 -18 -17 -43
-17 -56 0 -14 -18 -47 -40 -75 -24 -30 -40 -60 -40 -77 0 -40 -29 -131 -45
-145 -8 -7 -15 -18 -15 -26 0 -7 -14 -37 -31 -66 -17 -29 -33 -66 -36 -84 -9
-56 -93 -80 -93 -26 0 14 -2 14 -9 3 -10 -16 -4 -61 10 -76 21 -21 9 -63 -31
-103 -22 -22 -40 -44 -40 -50 0 -5 -36 -47 -80 -92 -76 -79 -86 -94 -94 -137
-12 -57 -20 -82 -39 -120 -12 -24 -27 -43 -33 -43 -19 0 -37 -87 -23 -112 7
-12 13 -64 15 -115 2 -75 0 -95 -12 -100 -20 -7 -17 -52 6 -96 20 -37 21 -56
5 -139 -6 -31 -4 -38 14 -47 23 -13 73 8 127 51 16 13 41 29 57 36 15 6 27 16
27 21 0 12 77 91 89 91 5 0 14 12 19 28 7 19 11 22 15 12 13 -37 29 -222 23
-259 -4 -25 -2 -50 5 -63 10 -18 12 -115 9 -373 0 -28 -9 -69 -21 -94 -11 -24
-19 -55 -19 -70 3 -43 1 -51 -14 -51 -8 0 -28 -24 -45 -53 -26 -46 -29 -58
-21 -87 6 -22 6 -38 0 -45 -15 -18 -33 -112 -36 -183 -2 -51 -10 -79 -49 -158
-35 -71 -44 -99 -36 -107 20 -20 12 -62 -20 -105 -17 -23 -28 -46 -25 -51 11
-17 8 -293 -3 -304 -6 -6 -11 -17 -11 -24 0 -10 33 -13 149 -13 139 0 149 1
154 19 4 18 9 19 41 9 20 -6 36 -15 36 -20 0 -4 35 -8 78 -8 76 1 77 1 47 17
-68 36 -76 61 -50 171 8 34 15 86 15 115 0 104 8 213 18 237 5 14 19 36 31 49
12 14 28 50 37 80 8 31 17 62 19 69 7 20 56 34 95 27 28 -5 40 -2 54 14 15 16
15 20 3 28 -10 5 -16 30 -18 78 -3 52 -9 73 -21 83 -15 11 -16 16 -5 32 17 29
37 25 50 -10 7 -19 17 -28 25 -25 8 3 24 5 38 5 20 0 23 4 22 35 -1 19 5 41
12 49 15 19 5 65 -18 82 -15 11 -13 16 21 49 43 42 60 78 51 107 -5 18 -3 19
23 14 28 -7 31 -4 55 49 20 45 24 64 18 92 -5 20 -14 39 -21 44 -14 9 -19 26
-26 90 -5 51 9 89 32 89 12 0 14 9 9 41 -4 26 -3 44 4 48 8 5 7 18 -2 45 -10
28 -11 50 -4 80 5 22 11 82 13 131 3 81 1 94 -21 132 -28 48 -30 75 -9 93 23
19 19 34 -25 89 -35 44 -40 56 -38 98 2 26 -1 74 -5 105 -6 43 -4 66 7 90 19
43 30 135 16 143 -5 3 -10 0 -11 -7 -1 -21 -18 24 -18 50 -1 15 6 26 18 29 10
2 24 16 30 29 10 22 7 30 -16 61 -26 34 -28 41 -29 157 0 99 3 127 18 156 12
23 18 56 18 98 0 62 13 100 48 144 7 9 12 22 11 30 -5 23 11 68 31 88 12 12
20 34 20 53 1 22 8 37 24 49 41 30 69 -13 55 -82 -17 -80 -17 -89 -3 -101 8
-6 14 -30 14 -54 0 -29 8 -54 27 -81 21 -31 27 -54 31 -114 5 -79 23 -130 47
-130 36 0 62 -91 29 -104 -13 -5 -13 -9 5 -34 19 -27 33 -75 46 -154 3 -21 10
-38 15 -38 5 0 12 -9 15 -20 11 -35 16 -90 8 -90 -8 0 -33 -70 -33 -92 0 -6 7
-19 15 -28 11 -13 15 -50 17 -161 3 -154 0 -167 -53 -220 -22 -22 -18 -57 8
-74 38 -25 54 -43 67 -76 l15 -37 -34 -23 c-19 -13 -41 -37 -49 -54 -13 -25
-13 -34 0 -64 14 -34 11 -71 -6 -71 -5 0 -15 -19 -21 -42 -7 -24 -16 -47 -21
-53 -4 -5 -8 -17 -8 -26 0 -10 -10 -34 -22 -54 -19 -34 -20 -42 -10 -98 13
-69 8 -99 -21 -140 -13 -19 -26 -27 -38 -24 -10 3 -20 -2 -23 -10 -9 -23 -7
-63 4 -63 5 0 14 -17 20 -39 5 -21 17 -44 25 -51 28 -23 14 -47 -74 -124 -18
-17 -21 -17 -15 -3 10 28 -50 22 -80 -8 -15 -15 -31 -22 -40 -19 -9 3 -16 1
-16 -6 0 -6 5 -8 12 -4 8 5 9 2 5 -10 -4 -10 -1 -19 8 -22 8 -4 12 -10 9 -15
-3 -5 -15 3 -27 17 l-22 26 -3 -29 c-1 -18 1 -23 6 -15 7 10 11 10 22 -2 7 -9
16 -13 21 -11 11 8 29 -29 29 -60 0 -14 -7 -37 -16 -50 -22 -33 -23 -54 -7
-100 19 -55 8 -112 -28 -146 l-28 -26 -27 28 c-15 16 -30 26 -34 24 -14 -9
-17 -66 -4 -73 7 -4 13 -11 13 -17 1 -5 6 -25 12 -42 6 -18 8 -37 5 -41 -3 -5
-28 -12 -55 -16 -27 -3 -54 -13 -61 -21 -6 -7 -24 -17 -40 -20 -41 -9 -74 -64
-65 -106 6 -27 5 -31 -9 -26 -9 4 -15 2 -13 -3 1 -6 -9 -16 -23 -23 -27 -14
-39 -62 -20 -81 8 -8 21 0 50 32 31 33 46 42 73 42 23 0 41 8 56 24 29 31 81
56 116 56 14 0 39 7 55 15 17 9 84 25 151 36 110 19 124 23 154 53 51 51 84
61 142 43 60 -19 130 -17 163 5 15 10 55 20 97 23 77 6 141 27 149 49 4 10 14
12 40 6 31 -7 36 -5 49 21 9 15 15 32 14 36 -4 24 4 44 33 81 27 35 36 41 60
37 19 -4 28 -1 28 7 0 20 49 68 68 68 10 0 24 6 31 12 10 10 15 10 18 1 5 -15
33 -5 33 11 0 7 9 31 20 54 24 50 25 65 3 83 -23 19 -25 18 -39 -21 -9 -26
-13 -30 -13 -13 -1 12 -8 26 -16 31 -14 7 -14 12 1 41 9 19 22 30 29 27 19 -7
30 11 44 67 9 40 9 52 -5 78 -8 17 -13 37 -10 45 3 8 8 42 11 77 4 34 8 67 10
74 6 17 -15 73 -26 73 -16 0 -9 30 16 68 13 20 27 55 30 77 3 22 19 67 35 99
28 55 29 61 15 83 -14 21 -14 24 0 29 20 8 103 -5 110 -17 4 -5 19 -9 36 -9
16 0 29 -5 29 -11 0 -5 -4 -8 -9 -4 -5 3 -13 1 -16 -5 -4 -7 7 -8 33 -4 25 4
42 2 46 -5 4 -6 26 -11 48 -11 23 0 49 -7 59 -15 12 -11 47 -18 121 -22 103
-6 104 -5 146 23 23 16 44 37 48 47 4 14 12 17 35 12 l29 -7 0 3080 0 3079
-22 11 -23 11 23 7 22 6 0 1374 0 1374 -1840 0 c-1744 0 -1841 -1 -1848 -17
-9 -23 -32 -28 -32 -8 0 13 -4 14 -21 5 -11 -7 -23 -9 -26 -6 -3 3 -14 1 -24
-5 -30 -16 -188 -16 -198 0 -6 9 -11 10 -15 2 -5 -7 -15 -7 -33 0 -15 5 -32 8
-39 5 -8 -3 -11 0 -8 8 7 18 -64 14 -77 -4 -9 -12 -10 -12 -5 3 6 20 3 20 -42
8 -20 -6 -30 -6 -27 0 4 5 -1227 9 -3239 9 l-3246 0 0 -5132z m6615 5081 c-4
-6 -23 -8 -42 -6 -52 7 -52 17 1 17 31 0 45 -4 41 -11z m-660 -359 c-3 -5 3
-10 14 -10 12 0 21 -3 22 -7 0 -5 2 -16 4 -27 2 -10 0 -29 -5 -42 -8 -19 -17
-24 -44 -24 -19 0 -37 4 -40 8 -3 5 -23 9 -46 9 -30 0 -40 -4 -40 -16 0 -10
-3 -12 -8 -6 -4 6 -18 10 -32 9 -14 -1 -31 1 -38 5 -19 11 8 41 40 43 15 1 26
5 25 9 -3 10 44 49 59 49 7 0 17 -7 22 -16 8 -14 11 -14 23 -1 12 11 31 22 47
26 2 1 0 -3 -3 -9z m-62 -132 c7 -7 12 -19 13 -25 2 -29 4 -34 13 -29 5 3 14
-7 19 -23 8 -22 7 -31 -1 -34 -7 -2 0 -10 16 -17 15 -7 27 -17 27 -22 0 -5 5
-6 10 -3 6 3 10 0 10 -7 0 -7 13 -24 29 -38 17 -13 28 -29 25 -34 -3 -6 1 -3
9 6 8 10 17 14 21 10 4 -4 7 -2 6 3 -5 21 1 32 15 32 18 0 19 -9 3 -26 -9 -9
-9 -12 -1 -7 15 8 46 -23 39 -40 -3 -7 -1 -16 4 -19 19 -12 10 -35 -14 -35
-17 0 -26 -7 -30 -26 l-7 -27 -25 24 c-14 13 -25 20 -24 14 7 -33 -20 -66 -50
-60 -11 2 -20 0 -20 -4 0 -4 -7 -8 -15 -9 -8 -1 -22 -3 -30 -4 -8 -1 -15 -5
-15 -10 0 -5 -8 -7 -17 -4 -10 2 -49 7 -88 11 -81 7 -107 13 -117 29 -5 7 -8
6 -8 -3 0 -12 -2 -12 -12 1 -7 9 -26 19 -43 22 -40 9 -46 9 -77 3 -15 -3 -30
-1 -33 4 -4 5 -17 9 -31 9 -14 0 -27 7 -30 15 -4 8 -10 12 -15 9 -5 -3 -9 0
-9 5 0 6 4 11 9 11 5 0 8 15 7 33 -1 19 -6 31 -14 29 -6 -1 -12 3 -12 10 0 9
-3 9 -12 0 -17 -17 -39 -15 -68 8 -19 15 -21 20 -9 20 15 0 34 25 31 41 -2 9
99 40 109 33 5 -3 9 0 9 6 0 6 5 8 10 5 6 -3 10 1 10 9 0 11 8 15 25 14 18 -2
25 -8 25 -23 0 -45 11 -46 213 -27 53 5 100 12 104 16 3 3 1 6 -6 6 -8 0 -9 5
-2 19 6 10 8 21 5 23 -3 3 -6 24 -8 47 -3 42 6 51 27 29z m-632 -1316 c7 -15
13 -21 16 -15 3 10 10 10 24 2 11 -5 25 -7 31 -3 7 5 8 3 4 -5 -6 -8 -2 -11
10 -9 11 2 18 -2 17 -8 -2 -8 8 -9 30 -4 18 4 70 7 114 6 45 -1 79 2 76 7 -2
4 13 8 34 9 21 0 52 2 68 2 17 1 40 -2 53 -6 15 -5 21 -4 17 2 -3 6 -1 10 4
10 6 0 11 -4 11 -9 0 -4 10 -7 23 -7 12 1 31 -2 42 -8 33 -16 44 -15 51 6 4
14 11 17 22 12 10 -4 25 -7 34 -8 9 0 14 -4 12 -8 -3 -5 2 -11 11 -14 14 -6
14 -7 -1 -18 -15 -11 -15 -14 1 -29 15 -16 15 -17 0 -17 -12 0 -16 -6 -12 -20
3 -11 1 -18 -4 -14 -5 3 -9 -1 -9 -9 0 -10 -8 -13 -25 -9 -16 3 -25 0 -25 -8
0 -7 7 -10 16 -6 8 3 12 2 9 -4 -3 -6 -17 -10 -29 -10 -25 0 -100 29 -77 30 8
0 20 8 27 18 12 14 13 14 8 1 -4 -13 0 -15 21 -11 14 2 24 9 22 15 -5 17 -70
28 -79 14 -5 -8 -8 -6 -8 6 0 10 -8 18 -20 18 -11 1 -26 2 -32 3 -7 1 -16 -3
-20 -8 -4 -6 -48 -11 -97 -11 -50 -1 -94 -5 -98 -8 -3 -4 -2 -7 4 -7 6 0 10
-13 9 -28 -2 -27 0 -28 25 -19 14 6 33 7 43 4 19 -7 22 -43 4 -50 -7 -3 31 -3
86 -1 54 2 107 -1 117 -7 16 -8 87 -18 169 -23 50 -3 71 -37 23 -36 -86 1
-101 -1 -107 -16 -5 -14 -8 -14 -22 0 -8 9 -30 16 -48 16 -19 0 -39 7 -46 15
-8 9 -30 15 -60 15 -26 0 -67 7 -91 15 -24 9 -53 15 -64 14 -11 -1 -28 1 -38
6 -10 4 -35 1 -60 -8 -23 -8 -77 -17 -120 -20 -43 -3 -84 -10 -90 -15 -12 -9
-102 -30 -156 -37 -45 -6 -101 -32 -147 -70 -34 -29 -51 -35 -87 -35 -35 0
-46 4 -50 18 -3 14 -6 12 -15 -10 -14 -33 -30 -44 -38 -24 -3 8 -12 17 -20 20
-9 3 -12 1 -9 -4 3 -6 2 -10 -4 -10 -5 0 -14 6 -18 13 -4 7 -23 19 -40 26 -33
14 -45 41 -19 41 8 0 18 5 22 12 4 7 3 8 -4 4 -7 -4 -12 -2 -12 4 0 7 -6 10
-14 7 -7 -3 -19 0 -25 6 -9 9 -14 8 -21 -3 -8 -13 -10 -12 -10 3 0 9 7 17 15
17 8 0 14 6 13 13 -2 8 16 12 64 13 36 1 71 5 78 9 6 4 16 5 23 2 8 -3 13 8
14 30 1 28 -1 32 -12 23 -10 -8 -15 -7 -19 8 -6 18 -15 20 -117 17 -97 -2
-116 0 -152 19 -35 19 -42 28 -45 59 -2 25 1 37 10 38 7 1 24 3 38 5 14 2 52
6 85 8 33 3 71 8 85 11 13 2 27 -1 31 -7 10 -16 39 -19 39 -4 0 9 14 12 43 11
58 -3 59 -3 51 -17 -5 -7 -3 -8 6 -3 19 12 60 13 53 1 -3 -5 6 -7 20 -4 17 3
24 1 20 -5 -4 -6 0 -8 11 -4 11 5 16 3 14 -5 -2 -6 -13 -12 -24 -13 -32 -3
-64 -16 -64 -26 0 -6 -4 -7 -10 -4 -6 3 -7 -1 -4 -9 3 -9 10 -13 15 -10 5 3 9
0 9 -7 0 -7 9 -9 28 -4 15 4 38 8 52 9 14 2 35 8 47 14 12 7 30 12 40 12 15 0
15 2 4 9 -8 6 -22 6 -31 1 -9 -5 -22 -3 -33 5 -18 13 -25 41 -7 30 6 -3 10 1
10 10 0 12 6 15 21 10 15 -5 19 -4 14 4 -4 8 3 10 24 6 24 -4 31 -1 36 15 3
11 13 20 21 20 10 0 12 5 8 13 -6 9 -4 9 8 -1 12 -9 18 -10 23 -2 4 7 16 10
26 7 11 -3 19 -2 19 2 0 4 11 8 25 9 20 1 28 -5 36 -26z m839 -412 c0 -5 -7
-10 -15 -10 -8 0 -15 5 -15 10 0 6 7 10 15 10 8 0 15 -4 15 -10z m133 -56 c3
-31 11 -62 16 -67 16 -16 13 -37 -4 -37 -8 0 -15 9 -15 20 0 11 -13 29 -30 42
-16 12 -30 27 -30 33 0 7 -9 20 -20 30 -27 24 -17 35 34 35 l43 0 6 -56z
m-1099 -52 c2 -4 1 -14 -3 -21 -7 -10 -13 -11 -30 -2 -12 7 -19 16 -16 22 7
11 42 12 49 1z m1252 -65 c4 -4 0 -7 -9 -7 -9 0 -18 4 -21 9 -7 10 20 9 30 -2z
m-1536 -17 c0 -19 -39 -35 -53 -21 -14 14 4 39 29 39 16 0 24 -6 24 -18z m-72
-62 c7 -7 12 -27 12 -45 0 -25 -4 -33 -18 -33 -33 0 -72 -25 -81 -52 -7 -19
-15 -26 -25 -22 -32 12 -6 79 52 132 40 36 43 37 60 20z m3860 -31 c6 0 12 -6
12 -13 0 -6 11 -15 25 -18 25 -6 31 -21 17 -43 -4 -7 -33 -13 -66 -14 -45 -2
-62 2 -71 14 -9 13 -30 17 -91 18 -43 1 -90 5 -104 9 l-25 8 26 1 c14 1 29 5
35 10 5 5 20 12 34 16 20 5 22 4 10 -5 -12 -9 -10 -11 13 -7 15 2 27 1 27 -4
0 -14 42 -22 50 -9 4 6 10 11 14 11 33 -5 46 1 46 20 0 16 4 19 18 14 9 -4 23
-8 30 -8z m423 0 c28 4 55 -5 119 -36 81 -39 86 -41 167 -37 46 2 89 8 96 14
12 10 58 15 129 13 28 -1 48 -10 75 -35 l38 -34 142 -4 c79 -3 148 -10 155
-15 17 -13 138 -25 138 -14 0 16 29 6 45 -15 19 -25 19 -34 -1 -34 -12 0 -15
-7 -12 -25 5 -24 3 -25 -46 -26 -175 -6 -251 -5 -326 3 -47 5 -136 13 -197 17
-79 5 -118 12 -130 23 -12 10 -25 13 -38 8 -31 -13 -97 -11 -125 3 -25 13 -42
50 -20 45 7 -2 14 4 15 12 2 15 -12 17 -65 11 -12 -1 -13 -3 -1 -10 27 -17 -2
-33 -39 -21 -3 1 -28 1 -55 0 -57 -1 -101 12 -122 38 -10 12 -12 12 -8 2 4 -8
-3 -5 -14 8 -26 30 -84 28 -90 -3 -7 -38 -59 -49 -68 -15 -6 22 -16 25 -43 10
-26 -14 -65 18 -56 48 5 15 18 23 49 27 55 8 81 13 85 15 1 2 7 3 12 4 6 0 14
7 19 14 5 8 19 11 37 8 16 -3 35 -1 43 3 8 5 24 6 35 2 12 -5 37 -6 57 -4z
m-4406 -217 c8 -9 14 -24 15 -35 0 -11 1 -33 2 -50 3 -32 -11 -39 -45 -23 -15
8 -17 20 -13 96 6 106 5 105 18 62 5 -19 16 -42 23 -50z m6003 8 c26 -26 14
-41 -29 -35 -48 6 -51 9 -43 31 7 19 54 22 72 4z m-3420 -419 c16 -6 22 -17
22 -38 0 -28 4 -32 54 -46 30 -9 65 -26 79 -38 14 -12 41 -33 61 -47 65 -46
55 -74 -24 -65 -25 2 -93 7 -152 11 -120 7 -111 1 -112 84 -1 32 -5 37 -53 60
-43 21 -53 30 -53 51 0 17 8 30 23 37 23 11 115 6 155 -9z m-868 -619 c6 -12
10 -33 8 -48 l-4 -27 -11 25 c-6 14 -18 32 -27 40 -14 10 -14 15 -4 21 20 13
26 11 38 -11z m89 -59 c17 -11 7 -45 -12 -39 -13 5 -23 48 -10 48 4 0 14 -4
22 -9z m-128 -168 c15 -9 33 -30 38 -45 9 -25 8 -28 -10 -28 -28 0 -59 18 -59
34 0 8 -7 19 -15 26 -37 31 -1 41 46 13z m-139 -93 c17 -17 28 -33 26 -35 -6
-6 -68 46 -68 56 0 15 11 10 42 -21z m-1351 -129 c-10 -19 -20 -23 -48 -20
-12 1 -3 32 15 52 13 15 18 16 30 3 11 -11 11 -18 3 -35z m1575 41 c6 -4 13
-15 17 -24 5 -15 3 -16 -18 -6 -14 6 -25 17 -25 25 0 14 9 17 26 5z m2553
-352 c12 -6 17 -17 14 -33 -5 -27 10 -42 52 -50 58 -10 178 -49 209 -68 17
-11 48 -24 69 -30 45 -12 103 -61 122 -103 25 -55 40 -67 90 -71 58 -5 67 -13
74 -67 5 -37 9 -43 33 -46 14 -2 33 -14 42 -27 8 -13 42 -33 76 -47 38 -14 58
-28 55 -35 -7 -19 5 -43 22 -43 8 0 12 -4 8 -9 -3 -6 -15 -8 -26 -6 -17 4 -20
0 -16 -18 2 -12 8 -31 13 -42 7 -18 6 -18 -9 -6 -14 11 -20 11 -32 1 -8 -7
-22 -9 -31 -6 -18 7 -96 -13 -105 -27 -8 -11 -69 1 -69 14 0 5 -9 9 -19 9 -13
0 -30 18 -50 53 -38 66 -77 107 -101 107 -27 0 -31 12 -21 63 4 25 5 50 2 56
-5 7 -29 8 -74 3 -76 -10 -88 -6 -86 29 1 13 -3 36 -9 52 -11 25 -15 27 -76
27 -70 0 -89 12 -83 51 5 28 -50 77 -95 86 -32 6 -50 25 -54 56 -1 12 -9 39
-18 59 -15 36 -15 37 10 57 29 23 55 26 83 11z m-4173 -76 c-10 -37 -40 -28
-44 13 -2 24 1 32 15 35 23 5 36 -17 29 -48z m360 -26 c8 -12 -24 -40 -37 -32
-5 3 -9 14 -9 25 0 21 34 27 46 7z m2660 -103 c4 -8 3 -22 0 -31 -6 -14 -9
-14 -26 6 -11 12 -17 27 -14 31 8 14 34 10 40 -6z m-282 -149 c10 -18 16 -42
14 -52 -3 -18 -5 -17 -26 4 -13 13 -22 34 -22 52 0 39 11 38 34 -4z m-2195
-265 c31 -20 -8 -161 -45 -161 -17 0 -44 39 -44 65 0 47 21 94 43 98 12 2 24
5 27 5 3 1 11 -2 19 -7z m622 -142 c23 -68 24 -95 2 -49 -10 19 -25 41 -35 48
-18 13 -24 43 -11 56 14 14 27 -2 44 -55z m3959 42 c0 -22 -27 -36 -33 -18 -6
18 3 37 19 37 8 0 14 -9 14 -19z m45 -1 c3 -5 -1 -10 -10 -10 -9 0 -13 5 -10
10 3 6 8 10 10 10 2 0 7 -4 10 -10z m-7682 -27 c-7 -2 -19 -2 -25 0 -7 3 -2 5
12 5 14 0 19 -2 13 -5z m7667 -48 c5 3 14 -3 20 -14 9 -17 6 -23 -17 -38 -16
-10 -30 -21 -33 -25 -3 -4 -17 3 -32 17 -18 17 -24 31 -21 48 5 23 7 24 39 15
19 -5 38 -6 44 -3z m-4153 -27 c-3 -8 -6 -5 -6 6 -1 11 2 17 5 13 3 -3 4 -12
1 -19z m240 -80 c-3 -8 -6 -5 -6 6 -1 11 2 17 5 13 3 -3 4 -12 1 -19z m3961
-80 c3 -13 -3 -18 -21 -18 -29 0 -37 7 -30 27 8 19 47 12 51 -9z m-3874 -14
c9 -3 16 -15 16 -26 0 -10 -4 -17 -9 -13 -5 3 -12 1 -16 -5 -3 -5 1 -10 9 -10
12 0 13 -5 5 -30 l-11 -30 -24 35 c-30 44 -32 85 -5 85 11 0 26 -3 35 -6z
m-129 -116 c38 -45 14 -47 -31 -4 -32 31 -34 36 -16 36 11 0 32 -14 47 -32z
m60 -58 c10 -16 -14 -50 -35 -50 -24 0 -35 16 -15 24 8 3 15 12 15 21 0 17 25
21 35 5z m-358 -32 c-3 -8 -6 -5 -6 6 -1 11 2 17 5 13 3 -3 4 -12 1 -19z
m4869 -1675 c-4 -16 -7 -36 -7 -45 0 -26 -24 -41 -38 -24 -19 22 6 96 32 96
16 0 18 -5 13 -27z m54 -68 c7 -8 9 -15 4 -16 -5 -1 2 -5 16 -9 21 -7 17 -8
-21 -9 -34 -1 -49 3 -53 15 -13 33 30 48 54 19z m-2468 -779 c4 -113 4 -132 0
-149 -3 -10 -10 -16 -18 -13 -8 3 -14 -1 -14 -10 0 -8 -4 -13 -9 -10 -4 3 -6
-6 -3 -19 2 -15 0 -25 -8 -25 -6 0 -28 -16 -48 -35 -20 -19 -40 -35 -44 -35
-10 0 -10 14 -1 24 19 19 33 91 33 179 0 96 0 97 23 92 19 -5 26 0 40 29 24
51 46 39 49 -28z m-325 -1968 c-3 -8 -6 -5 -6 6 -1 11 2 17 5 13 3 -3 4 -12 1
-19z"/>
<path d="M5601 8818 c-1 -9 -4 -18 -8 -21 -5 -2 -2 -2 6 0 8 2 11 -2 7 -12 -3
-8 -1 -15 4 -15 12 0 12 18 0 45 -7 16 -9 17 -9 3z"/>
<path d="M5626 8807 c5 -29 11 -31 16 -4 3 15 0 24 -8 24 -7 0 -11 -9 -8 -20z"/>
<path d="M5650 8789 c0 -15 18 -19 23 -6 3 8 -1 14 -9 14 -8 0 -14 -4 -14 -8z"/>
<path d="M5093 8777 c0 -9 9 -12 24 -9 34 6 36 18 4 20 -17 1 -28 -3 -28 -11z"/>
<path d="M5243 8763 c-10 -3 -9 -8 2 -19 11 -12 19 -12 35 -4 35 19 2 39 -37
23z"/>
<path d="M5360 8752 c0 -7 4 -11 8 -8 5 3 6 -8 4 -24 -2 -17 -7 -28 -11 -26
-4 3 -7 -5 -8 -17 0 -12 1 -17 4 -11 3 9 16 9 51 -1 39 -10 50 -10 60 1 9 10
7 16 -11 29 -13 9 -22 26 -22 43 0 25 -3 27 -37 27 -25 1 -38 -4 -38 -13z"/>
<path d="M5450 8750 c0 -6 5 -8 10 -5 6 3 10 1 10 -4 0 -6 9 -11 21 -11 12 0
19 5 17 13 -6 15 -58 22 -58 7z"/>
<path d="M4068 7216 l5 -29 -52 6 c-43 5 -54 3 -70 -15 -18 -18 -33 -20 -147
-23 -106 -2 -128 -5 -136 -18 -5 -10 -17 -17 -26 -17 -49 0 -95 -25 -161 -86
-39 -36 -71 -72 -71 -80 0 -8 -4 -14 -10 -14 -5 0 -25 -14 -45 -31 -24 -21
-35 -40 -35 -59 0 -16 -15 -46 -35 -73 -19 -25 -35 -49 -35 -54 0 -4 -13 -27
-29 -50 -24 -35 -28 -50 -24 -86 5 -40 3 -46 -30 -73 -30 -25 -39 -44 -67
-139 -17 -60 -38 -117 -46 -126 -8 -8 -14 -21 -14 -29 0 -29 70 -54 85 -30 10
16 82 12 89 -5 4 -10 19 -15 49 -15 25 0 64 7 87 15 23 8 57 15 75 15 19 0 39
8 50 20 12 13 31 20 55 20 27 0 44 7 66 30 20 20 39 30 60 30 32 0 77 28 151
97 44 40 91 137 100 204 4 30 1 37 -16 42 -30 8 -26 22 13 46 36 22 82 87 110
156 10 22 26 58 36 80 10 22 23 60 29 85 11 51 38 135 53 166 14 30 -5 61 -40
66 -26 4 -28 2 -24 -26z m-410 -478 c7 -7 12 -20 12 -30 0 -20 19 -59 35 -70
5 -4 21 -4 36 -1 15 3 35 0 46 -6 16 -9 15 -11 -14 -23 -28 -11 -32 -17 -40
-67 l-8 -56 -38 -3 c-23 -2 -46 2 -55 11 -10 8 -36 25 -60 38 -49 27 -78 75
-68 114 4 14 23 43 42 65 28 31 44 40 68 40 18 0 37 -5 44 -12z m182 -108 c0
-5 -4 -10 -10 -10 -5 0 -10 5 -10 10 0 6 5 10 10 10 6 0 10 -4 10 -10z"/>
<path d="M2975 6074 c-8 -20 -15 -48 -15 -61 0 -18 -4 -23 -14 -20 -9 4 -16
-4 -21 -21 -3 -15 -15 -34 -25 -42 -19 -15 -73 -110 -67 -117 12 -12 117 66
117 87 0 8 7 25 15 37 8 12 20 45 25 73 5 28 17 58 25 66 17 17 12 34 -10 34
-8 0 -22 -16 -30 -36z"/>
<path d="M4460 5790 c0 -19 3 -21 12 -12 9 9 9 15 0 24 -9 9 -12 7 -12 -12z"/>
<path d="M4412 5633 c-6 -10 -13 -52 -17 -95 -7 -71 -6 -77 13 -87 32 -17 41
12 35 107 -6 85 -15 106 -31 75z"/>
<path d="M2692 5465 c0 -16 2 -22 5 -12 2 9 2 23 0 30 -3 6 -5 -1 -5 -18z"/>
<path d="M7800 5447 c-20 -8 -22 -11 -7 -14 26 -7 47 1 39 13 -5 8 -14 9 -32
1z"/>
<path d="M7199 5428 c-6 -21 -5 -38 1 -38 5 0 8 9 7 20 -1 17 -5 26 -8 18z"/>
<path d="M7925 5402 c4 -12 3 -13 -10 -2 -13 11 -13 9 -5 -16 12 -35 57 -59
77 -43 7 6 13 8 13 4 0 -15 38 26 43 46 4 15 2 19 -9 15 -8 -3 -14 -1 -14 5 0
6 -21 9 -50 8 -40 -2 -50 -6 -45 -17z"/>
<path d="M4360 5354 c0 -26 -28 -84 -41 -84 -13 0 -39 -63 -34 -80 5 -16 45
-40 65 -40 6 0 10 7 10 16 0 9 16 32 35 51 40 40 42 54 15 117 -21 51 -50 62
-50 20z"/>
<path d="M7222 5136 c2 -20 5 -23 20 -15 16 9 17 12 4 24 -20 21 -26 19 -24
-9z"/>
<path d="M4520 5121 c0 -17 2 -31 4 -31 8 0 13 51 5 56 -5 3 -9 -9 -9 -25z"/>
<path d="M7313 5126 c5 -13 -31 -36 -56 -36 -24 0 -35 -21 -27 -49 5 -18 3
-36 -5 -52 -10 -17 -12 -54 -8 -134 5 -118 34 -227 93 -350 15 -33 36 -80 46
-105 10 -25 27 -51 36 -58 13 -9 18 -27 18 -61 0 -41 4 -50 30 -69 16 -12 33
-22 38 -22 14 0 25 100 13 114 -6 7 -8 16 -4 20 4 4 0 4 -10 0 -10 -3 -17 -1
-17 5 0 6 6 11 14 11 8 0 16 6 19 13 8 21 -10 394 -20 410 -3 5 -6 32 -8 60
-3 66 -45 217 -61 217 -22 0 -63 47 -58 68 4 14 0 21 -16 25 -15 4 -20 2 -17
-7z"/>
<path d="M4304 5079 c-49 -39 -50 -40 -69 -135 -9 -43 -28 -104 -42 -134 -25
-54 -46 -140 -34 -140 4 0 24 14 45 32 31 25 37 36 33 58 -4 17 1 38 14 59 10
17 19 46 19 65 0 34 50 145 75 166 17 14 20 46 6 54 -5 3 -26 -8 -47 -25z"/>
<path d="M2564 4984 c-8 -42 -7 -57 2 -65 10 -8 15 -1 23 28 14 50 14 68 -2
81 -10 9 -15 -1 -23 -44z"/>
<path d="M5263 4928 c-33 -41 -36 -152 -4 -146 25 5 41 49 39 102 -3 50 -17
67 -35 44z"/>
<path d="M2549 4873 c-1 -10 0 -24 1 -32 1 -8 -3 -24 -9 -35 -14 -29 -43 -219
-44 -286 -1 -64 19 -183 35 -209 7 -12 7 -31 0 -66 -6 -26 -7 -57 -2 -69 6
-19 10 -15 30 27 22 46 22 51 10 155 -7 64 -10 192 -8 320 2 116 0 212 -4 212
-5 0 -9 -8 -9 -17z"/>
<path d="M5563 4785 c3 -30 8 -59 12 -65 6 -9 75 46 75 60 0 16 -54 60 -73 60
-18 0 -19 -5 -14 -55z"/>
<path d="M5394 4790 c-19 -19 -5 -50 22 -50 12 0 26 -4 29 -10 14 -22 26 -8
23 28 -3 33 -6 37 -33 40 -17 2 -35 -2 -41 -8z"/>
<path d="M5672 4778 c6 -18 28 -21 28 -4 0 9 -7 16 -16 16 -9 0 -14 -5 -12
-12z"/>
<path d="M5343 4714 c-10 -28 10 -98 31 -102 17 -4 18 1 11 43 -8 58 -14 75
-26 75 -5 0 -12 -7 -16 -16z"/>
<path d="M2085 3930 c-3 -5 1 -10 10 -10 9 0 13 5 10 10 -3 6 -8 10 -10 10 -2
0 -7 -4 -10 -10z"/>
<path d="M7291 3711 c-10 -7 -6 -14 17 -31 17 -13 28 -28 25 -33 -3 -6 -1 -7
5 -3 7 4 12 2 12 -5 0 -7 3 -10 6 -6 8 8 12 67 5 71 -19 10 -58 14 -70 7z"/>
<path d="M7221 3671 c-7 -5 -11 -14 -7 -20 4 -6 -7 -19 -25 -30 -17 -10 -40
-33 -50 -50 -10 -17 -30 -36 -44 -41 -13 -5 -31 -24 -40 -42 -8 -18 -28 -53
-43 -78 -46 -73 -53 -103 -34 -141 12 -23 30 -37 61 -48 42 -15 44 -15 55 3
21 36 78 96 92 96 8 0 13 4 12 9 -2 5 14 32 34 59 20 27 40 67 44 88 4 22 13
44 20 49 17 14 2 106 -22 134 -20 23 -32 25 -53 12z"/>
<path d="M7340 3595 c7 -8 17 -15 22 -15 6 0 5 7 -2 15 -7 8 -17 15 -22 15 -6
0 -5 -7 2 -15z"/>
<path d="M7425 3543 c-9 -8 -12 -25 -9 -41 10 -57 13 -78 13 -104 1 -21 6 -28
21 -28 12 0 17 -5 14 -13 -3 -8 2 -19 9 -26 12 -9 18 -8 31 5 19 19 84 14 98
-8 4 -7 8 -9 8 -4 0 5 8 3 18 -5 9 -8 34 -24 55 -34 20 -11 37 -24 37 -30 0
-5 14 -24 30 -42 17 -18 30 -36 30 -41 0 -11 90 -96 95 -90 10 10 -59 111 -90
131 -19 12 -35 29 -35 38 0 9 -7 19 -15 23 -8 3 -15 13 -15 23 0 20 -78 103
-97 103 -8 0 -19 -12 -25 -27 l-11 -28 -7 30 c-3 17 -11 39 -17 50 -6 11 -19
42 -30 70 -17 45 -22 50 -57 56 -26 4 -42 2 -51 -8z"/>
<path d="M2205 3160 c-3 -5 2 -26 11 -45 18 -38 39 -43 58 -12 9 15 6 22 -19
43 -33 26 -41 29 -50 14z"/>
<path d="M2612 3110 c-6 -11 -12 -22 -12 -24 0 -4 57 -26 66 -26 2 0 4 16 4
35 0 30 -3 35 -23 35 -12 0 -28 -9 -35 -20z"/>
<path d="M8863 3077 c-25 -26 -30 -36 -21 -45 26 -26 62 -2 72 46 10 43 -9 42
-51 -1z"/>
<path d="M2275 3050 c-3 -5 5 -15 19 -22 30 -13 32 -25 11 -48 -13 -14 -11
-19 16 -48 16 -18 35 -32 42 -32 7 0 23 -16 36 -35 25 -38 65 -55 84 -36 6 6
21 11 34 11 39 0 29 17 -53 90 -21 20 -45 48 -51 63 -7 15 -21 27 -30 27 -10
0 -33 9 -51 20 -37 22 -48 24 -57 10z"/>
<path d="M2687 2743 c-13 -13 -7 -34 20 -68 29 -36 43 -37 43 -1 0 51 -39 94
-63 69z"/>
<path d="M2845 2610 c-3 -5 3 -15 15 -22 16 -10 20 -24 21 -68 2 -124 33 -128
41 -4 5 69 5 71 -24 87 -34 19 -44 21 -53 7z"/>
<path d="M2851 2514 c0 -11 3 -14 6 -6 3 7 2 16 -1 19 -3 4 -6 -2 -5 -13z"/>
<path d="M3005 2450 c-3 -5 -4 -14 0 -20 8 -13 35 -1 35 16 0 16 -26 19 -35 4z"/>
<path d="M2973 2363 c-19 -7 -16 -16 15 -56 16 -19 33 -32 39 -29 5 4 13 26
17 50 l6 42 -32 -1 c-18 0 -39 -3 -45 -6z"/>
<path d="M10020 1769 c0 -5 5 -7 10 -4 6 3 14 -5 20 -19 10 -28 29 -33 48 -14
19 19 14 26 -25 37 -47 14 -53 14 -53 0z"/>
<path d="M8760 1401 c0 -5 7 -14 15 -21 12 -10 15 -10 15 0 0 8 9 11 25 8 14
-3 25 -2 25 2 0 4 -14 10 -31 14 -42 8 -49 8 -49 -3z"/>
<path d="M5865 1321 c-20 -8 -20 -8 1 -15 25 -8 56 2 48 15 -6 11 -21 11 -49
0z"/>
<path d="M8750 1140 c0 -5 5 -10 10 -10 6 0 10 5 10 10 0 6 -4 10 -10 10 -5 0
-10 -4 -10 -10z"/>
<path d="M8552 530 c-14 -23 -16 -40 -3 -40 7 0 23 51 17 57 -1 1 -7 -7 -14
-17z"/>
<path d="M8643 104 c-7 -20 12 -33 38 -27 26 7 35 23 18 34 -22 14 -49 10 -56
-7z"/>
<path d="M8390 30 c0 -23 31 -33 81 -27 31 3 30 4 -8 5 -39 2 -48 9 -44 35 0
4 -6 7 -14 7 -8 0 -15 -9 -15 -20z"/>
<path d="M9038 3 c7 -3 16 -2 19 1 4 3 -2 6 -13 5 -11 0 -14 -3 -6 -6z"/>
</g>
</svg>
